<svg width="31" height="28" viewBox="0 0 31 28" fill="none" xmlns="http://www.w3.org/2000/svg">
<path d="M24.1587 0.293467C23.8594 0.0883485 23.478 0.0707669 23.1553 0.252443C21.4009 1.26045 19.7052 2.41497 18.1034 3.68671C17.8922 3.85666 17.7631 4.10866 17.7513 4.37825C17.7396 4.64783 17.8452 4.91156 18.0388 5.09909C21.3599 8.25791 25.96 17.9453 27.0162 22.3993C24.7278 18.5314 19.6231 9.43002 16.2845 6.31808C15.9265 5.98403 15.3633 5.98403 15.0053 6.31808C11.6608 9.43002 6.5737 18.5373 4.28536 22.4111C5.34152 17.9571 9.92992 8.25791 13.2509 5.09909C13.4504 4.91156 13.5561 4.64783 13.5443 4.37825C13.5326 4.10866 13.4035 3.85666 13.1923 3.68671C11.5904 2.41497 9.88885 1.26045 8.14033 0.252443C7.82935 0.0707669 7.43622 0.0883485 7.13698 0.293467C3.05905 3.10066 0.624023 7.71288 0.624023 12.6357C0.624023 16.2341 1.92075 19.7035 4.28536 22.4111C7.11351 25.7281 11.2501 27.6386 15.6449 27.6386C20.0397 27.6386 24.1822 25.734 27.0162 22.4052C29.369 19.7094 30.6658 16.2399 30.6658 12.6357C30.6658 7.71288 28.2307 3.10066 24.1587 0.293467Z" fill="#FFB548"/>
</svg>
